<?xml version="1.0" encoding="UTF-8" standalone="no"?>
<svg
   xmlns:dc="http://purl.org/dc/elements/1.1/"
   xmlns:cc="http://creativecommons.org/ns#"
   xmlns:rdf="http://www.w3.org/1999/02/22-rdf-syntax-ns#"
   xmlns:svg="http://www.w3.org/2000/svg"
   xmlns="http://www.w3.org/2000/svg"
   xmlns:sodipodi="http://sodipodi.sourceforge.net/DTD/sodipodi-0.dtd"
   xmlns:inkscape="http://www.inkscape.org/namespaces/inkscape"
   version="1.1"
   id="svg2"
   viewBox="0 0 434.01692 113.16239"
   height="31.936941mm"
   width="122.48922mm"
   inkscape:version="0.92.1 r15371"
   sodipodi:docname="FactsMissionTLO.svg"
   inkscape:export-filename="/home/noam/FactsMissionTLO.svg.png"
   inkscape:export-xdpi="90"
   inkscape:export-ydpi="90">
  <sodipodi:namedview
     pagecolor="#ffffff"
     bordercolor="#666666"
     borderopacity="1"
     objecttolerance="10"
     gridtolerance="10"
     guidetolerance="10"
     inkscape:pageopacity="0"
     inkscape:pageshadow="2"
     inkscape:window-width="1920"
     inkscape:window-height="1147"
     id="namedview12"
     showgrid="false"
     inkscape:zoom="2.4356275"
     inkscape:cx="224.63214"
     inkscape:cy="53.332835"
     inkscape:window-x="-8"
     inkscape:window-y="-8"
     inkscape:window-maximized="1"
     inkscape:current-layer="layer1"
     showguides="true"
     inkscape:guide-bbox="true"
     inkscape:snap-bbox="true"
     inkscape:bbox-paths="true"
     inkscape:bbox-nodes="true"
     inkscape:snap-bbox-edge-midpoints="true"
     inkscape:snap-bbox-midpoints="true"
     inkscape:object-paths="true"
     inkscape:snap-intersection-paths="true"
     inkscape:object-nodes="true"
     inkscape:snap-smooth-nodes="true"
     inkscape:snap-midpoints="true"
     inkscape:snap-object-midpoints="true"
     inkscape:snap-center="true"
     inkscape:snap-text-baseline="true"
     inkscape:snap-page="true"
     inkscape:snap-nodes="true"
     fit-margin-top="10"
     fit-margin-left="10"
     fit-margin-bottom="10"
     fit-margin-right="10"
     inkscape:pagecheckerboard="true" />
  <defs
     id="defs4" />
  <metadata
     id="metadata7">
    <rdf:RDF>
      <cc:Work
         rdf:about="">
        <dc:format>image/svg+xml</dc:format>
        <dc:type
           rdf:resource="http://purl.org/dc/dcmitype/StillImage" />
        <dc:title></dc:title>
      </cc:Work>
    </rdf:RDF>
  </metadata>
  <g
     id="layer1"
     transform="translate(-112.67201,-457.30914)">
    <path
       style="color:#000000;clip-rule:nonzero;display:inline;overflow:visible;visibility:visible;opacity:1;isolation:auto;mix-blend-mode:normal;color-interpolation:sRGB;color-interpolation-filters:linearRGB;solid-color:#000000;solid-opacity:1;fill:#ffffff;fill-opacity:1;fill-rule:evenodd;stroke:#ffffff;stroke-width:2.0999999;stroke-linecap:butt;stroke-linejoin:miter;stroke-miterlimit:4;stroke-dasharray:none;stroke-dashoffset:0;stroke-opacity:1;color-rendering:auto;image-rendering:auto;shape-rendering:auto;text-rendering:auto;enable-background:accumulate"
       d="m 506.18086,497.31721 -178.25808,0.0713"
       id="path3448"
       inkscape:connector-curvature="0"
       sodipodi:nodetypes="cc" />
    <text
       id="text3344"
       y="502.69437"
       x="255.83701"
       style="font-style:normal;font-weight:normal;font-size:40px;line-height:0%;font-family:sans-serif;letter-spacing:0px;word-spacing:0px;fill:#000000;fill-opacity:1;stroke:none;stroke-width:1px;stroke-linecap:butt;stroke-linejoin:miter;stroke-opacity:1"
       xml:space="preserve"><tspan
         y="502.69437"
         x="255.83701"
         id="tspan3346" /></text>
    <text
       id="text3382"
       y="538.05145"
       x="333.33701"
       style="font-style:normal;font-weight:normal;font-size:40px;line-height:0%;font-family:sans-serif;letter-spacing:0px;word-spacing:0px;fill:#000000;fill-opacity:1;stroke:none;stroke-width:1px;stroke-linecap:butt;stroke-linejoin:miter;stroke-opacity:1"
       xml:space="preserve"><tspan
         y="538.05145"
         x="333.33701"
         id="tspan3384" /></text>
    <text
       xml:space="preserve"
       style="font-style:normal;font-weight:normal;line-height:0%;font-family:sans-serif;letter-spacing:0px;word-spacing:0px;fill:#ffffff;fill-opacity:1;stroke:none;stroke-width:1px;stroke-linecap:butt;stroke-linejoin:miter;stroke-opacity:1;"
       x="344.63626"
       y="512.56525"
       id="text3359"><tspan
         sodipodi:role="line"
         id="tspan3361"
         x="344.63626"
         y="512.56525"
         style="font-size:40px;line-height:1.25;fill:#ffffff;"> </tspan></text>
    <path
       inkscape:connector-curvature="0"
       id="path3376"
       style="font-style:normal;font-variant:normal;font-weight:900;font-stretch:normal;font-size:medium;line-height:125%;font-family:'Noto Sans CJK JP';-inkscape-font-specification:'Noto Sans CJK JP, Heavy';text-align:start;letter-spacing:0px;word-spacing:0px;writing-mode:lr-tb;text-anchor:start;fill:#ffffff;fill-opacity:1;stroke:none;stroke-width:1px;stroke-linecap:butt;stroke-linejoin:miter;stroke-opacity:1"
       d="m 148.10508,534.33846 8.95,0 0,-14.2 12.7,0 0,-7.45 -12.7,0 0,-8.15 14.8,0 0,-7.4 -23.75,0 0,37.2 z" />
    <path
       inkscape:connector-curvature="0"
       id="path3378"
       style="font-style:normal;font-variant:normal;font-weight:900;font-stretch:normal;font-size:medium;line-height:125%;font-family:'Noto Sans CJK JP';-inkscape-font-specification:'Noto Sans CJK JP, Heavy';text-align:start;letter-spacing:0px;word-spacing:0px;writing-mode:lr-tb;text-anchor:start;fill:#ffffff;fill-opacity:1;stroke:none;stroke-width:1px;stroke-linecap:butt;stroke-linejoin:miter;stroke-opacity:1"
       d="m 182.53477,535.03846 c 3.15,0 5.8,-1.45 8.15,-3.55 l 0.2,0 0.65,2.85 7.25,0 0,-16.15 c 0,-8.9 -4.15,-13 -11.5,-13 -4.45,0 -8.5,1.5 -12.25,3.75 l 3.1,5.85 c 2.85,-1.6 5.2,-2.5 7.45,-2.5 2.9,0 4.1,1.35 4.3,3.65 -11.1,1.2 -15.8,4.45 -15.8,10.45 0,4.75 3.2,8.65 8.45,8.65 z m 3.05,-6.9 c -1.85,0 -3.05,-0.8 -3.05,-2.45 0,-2 1.8,-3.6 7.35,-4.35 l 0,4.55 c -1.3,1.4 -2.5,2.25 -4.3,2.25 z" />
    <path
       inkscape:connector-curvature="0"
       id="path3380"
       style="font-style:normal;font-variant:normal;font-weight:900;font-stretch:normal;font-size:medium;line-height:125%;font-family:'Noto Sans CJK JP';-inkscape-font-specification:'Noto Sans CJK JP, Heavy';text-align:start;letter-spacing:0px;word-spacing:0px;writing-mode:lr-tb;text-anchor:start;fill:#ffffff;fill-opacity:1;stroke:none;stroke-width:1px;stroke-linecap:butt;stroke-linejoin:miter;stroke-opacity:1"
       d="m 218.15821,535.03846 c 3,0 6.6,-0.9 9.35,-3.35 l -3.4,-5.85 c -1.45,1.15 -3.15,2 -4.95,2 -3.5,0 -6.05,-3 -6.05,-7.7 0,-4.75 2.45,-7.75 6.35,-7.75 1.25,0 2.35,0.45 3.65,1.55 l 4.15,-5.7 c -2.15,-1.85 -4.85,-3.05 -8.3,-3.05 -7.95,0 -14.95,5.5 -14.95,14.95 0,9.4 6.15,14.9 14.15,14.9 z" />
    <path
       inkscape:connector-curvature="0"
       id="path3382"
       style="font-style:normal;font-variant:normal;font-weight:900;font-stretch:normal;font-size:medium;line-height:125%;font-family:'Noto Sans CJK JP';-inkscape-font-specification:'Noto Sans CJK JP, Heavy';text-align:start;letter-spacing:0px;word-spacing:0px;writing-mode:lr-tb;text-anchor:start;fill:#ffffff;fill-opacity:1;stroke:none;stroke-width:1px;stroke-linecap:butt;stroke-linejoin:miter;stroke-opacity:1"
       d="m 243.07774,535.03846 c 2.9,0 4.95,-0.6 6.45,-1.05 l -1.4,-6.4 c -0.7,0.2 -1.7,0.5 -2.6,0.5 -2.1,0 -3.6,-1.25 -3.6,-4.4 l 0,-10.85 6.7,0 0,-6.95 -6.7,0 0,-7.5 -7.4,0 -1,7.5 -4.35,0.35 0,6.6 3.85,0 0,10.95 c 0,6.75 2.9,11.25 10.05,11.25 z" />
    <path
       inkscape:connector-curvature="0"
       id="path3384"
       style="font-style:normal;font-variant:normal;font-weight:900;font-stretch:normal;font-size:medium;line-height:125%;font-family:'Noto Sans CJK JP';-inkscape-font-specification:'Noto Sans CJK JP, Heavy';text-align:start;letter-spacing:0px;word-spacing:0px;writing-mode:lr-tb;text-anchor:start;fill:#ffffff;fill-opacity:1;stroke:none;stroke-width:1px;stroke-linecap:butt;stroke-linejoin:miter;stroke-opacity:1"
       d="m 262.05742,535.03846 c 7.75,0 11.85,-4.05 11.85,-9.3 0,-5.15 -3.95,-7.2 -7.5,-8.55 -2.95,-1.05 -5.55,-1.7 -5.55,-3.4 0,-1.35 1,-2.05 3,-2.05 1.9,0 3.9,1 5.9,2.4 l 4,-5.3 c -2.5,-1.85 -5.7,-3.65 -10.2,-3.65 -6.6,0 -11,3.65 -11,9.05 0,4.7 4,7 7.4,8.35 2.9,1.15 5.65,1.95 5.65,3.65 0,1.4 -1,2.25 -3.35,2.25 -2.25,0 -4.6,-1 -7.2,-3 l -3.95,5.55 c 2.85,2.4 7.25,4 10.95,4 z" />
    <path
       inkscape:connector-curvature="0"
       id="path3386"
       style="font-style:normal;font-variant:normal;font-weight:900;font-stretch:normal;font-size:medium;line-height:125%;font-family:'Noto Sans CJK JP';-inkscape-font-specification:'Noto Sans CJK JP, Heavy';text-align:start;letter-spacing:0px;word-spacing:0px;writing-mode:lr-tb;text-anchor:start;fill:#ffffff;fill-opacity:1;stroke:none;stroke-width:1px;stroke-linecap:butt;stroke-linejoin:miter;stroke-opacity:1"
       d="m 279.74571,534.33846 8,0 0,-12.75 c 0,-3.7 -0.7,-9.25 -1.15,-12.9 l 0.2,0 3,8.9 5.05,13.6 4.9,0 5,-13.6 3.1,-8.9 0.2,0 c -0.45,3.65 -1.15,9.2 -1.15,12.9 l 0,12.75 8.15,0 0,-37.2 -9.7,0 -5.7,16.05 c -0.7,2.15 -1.3,4.5 -2.05,6.8 l -0.25,0 c -0.7,-2.3 -1.3,-4.65 -2.05,-6.8 l -5.9,-16.05 -9.65,0 0,37.2 z" />
    <path
       inkscape:connector-curvature="0"
       id="path3388"
       style="font-style:normal;font-variant:normal;font-weight:900;font-stretch:normal;font-size:medium;line-height:125%;font-family:'Noto Sans CJK JP';-inkscape-font-specification:'Noto Sans CJK JP, Heavy';text-align:start;letter-spacing:0px;word-spacing:0px;writing-mode:lr-tb;text-anchor:start;fill:#ffffff;fill-opacity:1;stroke:none;stroke-width:1px;stroke-linecap:butt;stroke-linejoin:miter;stroke-opacity:1"
       d="m 322.89336,534.33846 8.85,0 0,-28.45 -8.85,0 0,28.45 z m 4.45,-32.4 c 2.95,0 5.05,-1.9 5.05,-4.55 0,-2.7 -2.1,-4.6 -5.05,-4.6 -3,0 -5.1,1.9 -5.1,4.6 0,2.65 2.1,4.55 5.1,4.55 z" />
    <path
       inkscape:connector-curvature="0"
       id="path3390"
       style="font-style:normal;font-variant:normal;font-weight:900;font-stretch:normal;font-size:medium;line-height:125%;font-family:'Noto Sans CJK JP';-inkscape-font-specification:'Noto Sans CJK JP, Heavy';text-align:start;letter-spacing:0px;word-spacing:0px;writing-mode:lr-tb;text-anchor:start;fill:#ffffff;fill-opacity:1;stroke:none;stroke-width:1px;stroke-linecap:butt;stroke-linejoin:miter;stroke-opacity:1"
       d="m 347.40899,535.03846 c 7.75,0 11.85,-4.05 11.85,-9.3 0,-5.15 -3.95,-7.2 -7.5,-8.55 -2.95,-1.05 -5.55,-1.7 -5.55,-3.4 0,-1.35 1,-2.05 3,-2.05 1.9,0 3.9,1 5.9,2.4 l 4,-5.3 c -2.5,-1.85 -5.7,-3.65 -10.2,-3.65 -6.6,0 -11,3.65 -11,9.05 0,4.7 4,7 7.4,8.35 2.9,1.15 5.65,1.95 5.65,3.65 0,1.4 -1,2.25 -3.35,2.25 -2.25,0 -4.6,-1 -7.2,-3 l -3.95,5.55 c 2.85,2.4 7.25,4 10.95,4 z" />
    <path
       inkscape:connector-curvature="0"
       id="path3392"
       style="font-style:normal;font-variant:normal;font-weight:900;font-stretch:normal;font-size:medium;line-height:125%;font-family:'Noto Sans CJK JP';-inkscape-font-specification:'Noto Sans CJK JP, Heavy';text-align:start;letter-spacing:0px;word-spacing:0px;writing-mode:lr-tb;text-anchor:start;fill:#ffffff;fill-opacity:1;stroke:none;stroke-width:1px;stroke-linecap:butt;stroke-linejoin:miter;stroke-opacity:1"
       d="m 372.89727,535.03846 c 7.75,0 11.85,-4.05 11.85,-9.3 0,-5.15 -3.95,-7.2 -7.5,-8.55 -2.95,-1.05 -5.55,-1.7 -5.55,-3.4 0,-1.35 1,-2.05 3,-2.05 1.9,0 3.9,1 5.9,2.4 l 4,-5.3 c -2.5,-1.85 -5.7,-3.65 -10.2,-3.65 -6.6,0 -11,3.65 -11,9.05 0,4.7 4,7 7.4,8.35 2.9,1.15 5.65,1.95 5.65,3.65 0,1.4 -1,2.25 -3.35,2.25 -2.25,0 -4.6,-1 -7.2,-3 l -3.95,5.55 c 2.85,2.4 7.25,4 10.95,4 z" />
    <path
       inkscape:connector-curvature="0"
       id="path3394"
       style="font-style:normal;font-variant:normal;font-weight:900;font-stretch:normal;font-size:medium;line-height:125%;font-family:'Noto Sans CJK JP';-inkscape-font-specification:'Noto Sans CJK JP, Heavy';text-align:start;letter-spacing:0px;word-spacing:0px;writing-mode:lr-tb;text-anchor:start;fill:#ffffff;fill-opacity:1;stroke:none;stroke-width:1px;stroke-linecap:butt;stroke-linejoin:miter;stroke-opacity:1"
       d="m 389.88555,534.33846 8.85,0 0,-28.45 -8.85,0 0,28.45 z m 4.45,-32.4 c 2.95,0 5.05,-1.9 5.05,-4.55 0,-2.7 -2.1,-4.6 -5.05,-4.6 -3,0 -5.1,1.9 -5.1,4.6 0,2.65 2.1,4.55 5.1,4.55 z" />
    <path
       inkscape:connector-curvature="0"
       id="path3396"
       style="font-style:normal;font-variant:normal;font-weight:900;font-stretch:normal;font-size:medium;line-height:125%;font-family:'Noto Sans CJK JP';-inkscape-font-specification:'Noto Sans CJK JP, Heavy';text-align:start;letter-spacing:0px;word-spacing:0px;writing-mode:lr-tb;text-anchor:start;fill:#ffffff;fill-opacity:1;stroke:none;stroke-width:1px;stroke-linecap:butt;stroke-linejoin:miter;stroke-opacity:1"
       d="m 418.25117,535.03846 c 7.2,0 13.9,-5.5 13.9,-14.9 0,-9.45 -6.7,-14.95 -13.9,-14.95 -7.25,0 -13.95,5.5 -13.95,14.95 0,9.4 6.7,14.9 13.95,14.9 z m 0,-7.2 c -3.35,0 -4.85,-3 -4.85,-7.7 0,-4.75 1.5,-7.75 4.85,-7.75 3.3,0 4.8,3 4.8,7.75 0,4.7 -1.5,7.7 -4.8,7.7 z" />
    <path
       inkscape:connector-curvature="0"
       id="path3398"
       style="font-style:normal;font-variant:normal;font-weight:900;font-stretch:normal;font-size:medium;line-height:125%;font-family:'Noto Sans CJK JP';-inkscape-font-specification:'Noto Sans CJK JP, Heavy';text-align:start;letter-spacing:0px;word-spacing:0px;writing-mode:lr-tb;text-anchor:start;fill:#ffffff;fill-opacity:1;stroke:none;stroke-width:1px;stroke-linecap:butt;stroke-linejoin:miter;stroke-opacity:1"
       d="m 437.73711,534.33846 8.85,0 0,-19 c 1.75,-1.65 2.95,-2.55 4.95,-2.55 2.25,0 3.3,1.15 3.3,5.05 l 0,16.5 8.9,0 0,-17.6 c 0,-7.1 -2.65,-11.55 -8.85,-11.55 -3.85,0 -6.75,1.95 -9.1,4.25 l -0.2,0 -0.6,-3.55 -7.25,0 0,28.45 z" />
    <path
       d="m 506.20586,501.89221 c 2.95,0 5.05,-1.9 5.05,-4.55 0,-2.7 -2.1,-4.6 -5.05,-4.6 -3,0 -5.1,1.9 -5.1,4.6 0,2.65 2.1,4.55 5.1,4.55 z"
       style="font-style:normal;font-variant:normal;font-weight:900;font-stretch:normal;font-size:medium;line-height:125%;font-family:'Noto Sans CJK JP';-inkscape-font-specification:'Noto Sans CJK JP, Heavy';text-align:start;letter-spacing:0px;word-spacing:0px;writing-mode:lr-tb;text-anchor:start;fill:#ffffff;fill-opacity:1;stroke:none;stroke-width:1px;stroke-linecap:butt;stroke-linejoin:miter;stroke-opacity:1"
       id="path3423"
       inkscape:connector-curvature="0"
       sodipodi:nodetypes="sssss" />
  </g>
</svg>
