<?xml version="1.0" encoding="UTF-8"?>
<svg width="122.49mm" height="31.937mm" version="1.1" viewBox="0 0 434.01692 113.16239" xmlns="http://www.w3.org/2000/svg"><path transform="matrix(.9375 0 0 .9375 -.0009752 0)" d="m419.78 37.793c-2.7589 0-4.8011 1.5066-5.3125 3.7676l-108.76 0.042969c-0.51511-2.2542-2.5478-3.7578-5.2559-3.7578-2.7557 0-4.7962 1.5051-5.3106 3.7617l-60.893 0.023437c-0.5046-2.2698-2.5444-3.7852-5.2637-3.7852-3.2 0-5.4394 2.0262-5.4394 4.9062 0 2.8267 2.2394 4.8535 5.4394 4.8535 2.7125 0 4.7488-1.5082 5.2598-3.7344l60.889-0.023438c0.50276 2.2392 2.5501 3.7578 5.3184 3.7578 2.7236 0 4.7651-1.5205 5.2656-3.7617l108.75-0.042969c0.5052 2.2357 2.5508 3.752 5.3164 3.752 3.1467 0 5.3867-2.0268 5.3867-4.8535 0-2.88-2.24-4.9062-5.3867-4.9062zm-381.97 4.6934v39.68h9.5449v-15.146h13.547v-7.9473h-13.547v-8.6934h15.787v-7.8926h-25.332zm140.42 0v39.68h8.5332v-13.6c0-3.9467-0.74657-9.8684-1.2266-13.762h0.21289l3.1992 9.4941 5.3867 14.506h5.2266l5.334-14.506 3.3066-9.4941h0.21289c-0.48 3.8933-1.2266 9.815-1.2266 13.762v13.6h8.6934v-39.68h-10.346l-6.0801 17.119c-0.74667 2.2933-1.3875 4.8006-2.1875 7.2539h-0.26563c-0.74667-2.4533-1.3875-4.9606-2.1875-7.2539l-6.293-17.119h-10.293zm-48.236 1.332l-1.0664 8-4.6387 0.37305v7.041h4.1055v11.68c0 7.2 3.094 12 10.721 12 3.0933 0 5.2789-0.63914 6.8789-1.1191l-1.4922-6.8281c-0.74667 0.21333-1.8134 0.5332-2.7734 0.5332-2.24 0-3.8398-1.3334-3.8398-4.6934v-11.572h7.1465v-7.4141h-7.1465v-8h-7.8945zm-50.398 7.2539c-4.7467 0-9.0684 1.6-13.068 4l3.3066 6.2402c3.04-1.7067 5.5473-2.668 7.9473-2.668 3.0933 0 4.3746 1.4412 4.5879 3.8945-11.84 1.28-16.854 4.7465-16.854 11.146 0 5.0667 3.4117 9.2266 9.0117 9.2266 3.36 0 6.1867-1.5471 8.6934-3.7871h0.21484l0.69336 3.041h7.7324v-17.227c0-9.4934-4.4256-13.867-12.266-13.867zm33.791 0c-8.48 0-15.947 5.8672-15.947 15.947 0 10.027 6.5604 15.893 15.094 15.893 3.2 0 7.0413-0.96088 9.9746-3.5742l-3.627-6.2383c-1.5467 1.2267-3.3612 2.1328-5.2812 2.1328-3.7333 0-6.4531-3.1995-6.4531-8.2129 0-5.0667 2.6134-8.2676 6.7734-8.2676 1.3333 0 2.5079 0.48096 3.8945 1.6543l4.4258-6.0801c-2.2933-1.9733-5.1735-3.2539-8.8535-3.2539zm47.574 0c-7.04 0-11.734 3.8923-11.734 9.6523 0 5.0133 4.2678 7.4682 7.8945 8.9082 3.0933 1.2267 6.0254 2.0792 6.0254 3.8926 0 1.4933-1.0656 2.4004-3.5723 2.4004-2.4 0-4.9064-1.0678-7.6797-3.2012l-4.2148 5.9199c3.04 2.56 7.735 4.2676 11.682 4.2676 8.2667 0 12.639-4.3199 12.639-9.9199 0-5.4933-4.2133-7.6791-8-9.1191-3.1467-1.12-5.9199-1.8136-5.9199-3.627 0-1.44 1.0678-2.1875 3.2012-2.1875 2.0267 0 4.1596 1.0672 6.293 2.5605l4.2656-5.6543c-2.6667-1.9733-6.0789-3.8926-10.879-3.8926zm91.039 0c-7.04 0-11.732 3.8923-11.732 9.6523 0 5.0133 4.2659 7.4682 7.8926 8.9082 3.0933 1.2267 6.0273 2.0792 6.0273 3.8926 0 1.4933-1.0675 2.4004-3.5742 2.4004-2.4 0-4.9064-1.0678-7.6797-3.2012l-4.2129 5.9199c3.04 2.56 7.733 4.2676 11.68 4.2676 8.2667 0 12.641-4.3199 12.641-9.9199 0-5.4933-4.2133-7.6791-8-9.1191-3.1467-1.12-5.9199-1.8136-5.9199-3.627 0-1.44 1.0659-2.1875 3.1992-2.1875 2.0267 0 4.1596 1.0672 6.293 2.5605l4.2676-5.6543c-2.6667-1.9733-6.0808-3.8926-10.881-3.8926zm27.189 0c-7.04 0-11.732 3.8923-11.732 9.6523 0 5.0133 4.2659 7.4682 7.8926 8.9082 3.0933 1.2267 6.0274 2.0792 6.0274 3.8926 0 1.4933-1.0676 2.4004-3.5742 2.4004-2.4 0-4.9064-1.0678-7.6797-3.2012l-4.2129 5.9199c3.04 2.56 7.733 4.2676 11.68 4.2676 8.2667 0 12.641-4.3199 12.641-9.9199 0-5.4933-4.2133-7.6791-8-9.1191-3.1467-1.12-5.9199-1.8136-5.9199-3.627 0-1.44 1.0659-2.1875 3.1992-2.1875 2.0267 0 4.1596 1.0672 6.293 2.5605l4.2676-5.6543c-2.6667-1.9733-6.0808-3.8926-10.881-3.8926zm46.773 0c-7.7333 0-14.879 5.8672-14.879 15.947 0 10.027 7.1456 15.893 14.879 15.893 7.68 0 14.828-5.8659 14.828-15.893 0-10.08-7.1481-15.947-14.828-15.947zm39.084 0c-4.1067 0-7.2004 2.0799-9.707 4.5332h-0.21289l-0.64063-3.7871h-7.7344v30.348h9.4414v-20.268c1.8667-1.76 3.146-2.7188 5.2793-2.7188 2.4 0 3.5195 1.2267 3.5195 5.3867v17.6h9.4941v-18.773c0-7.5733-2.8261-12.32-9.4394-12.32zm-140.8 0.74609v30.348h9.4394v-30.348h-9.4394zm71.467 0v30.348h9.4395v-30.348h-9.4395zm30.25 6.9336c3.52 0 5.1211 3.2009 5.1211 8.2676 0 5.0133-1.6011 8.2129-5.1211 8.2129-3.5733 0-5.1719-3.1995-5.1719-8.2129 0-5.0667 1.5985-8.2676 5.1719-8.2676zm-243.59 9.5469v4.8535c-1.3867 1.4933-2.6679 2.4004-4.5879 2.4004-1.9733 0-3.2539-0.85328-3.2539-2.6133 0-2.1333 1.9218-3.8406 7.8418-4.6406z"/>
</svg>
